<svg width="32" height="36" viewBox="0 0 32 36" fill="none" xmlns="http://www.w3.org/2000/svg">
<path d="M28 2V4H24V2C24 0.9 23.1 0 22 0H10C8.9 0 8 0.9 8 2V4H4V2C4 0.9 3.1 0 2 0C0.9 0 0 0.9 0 2V34C0 35.1 0.9 36 2 36C3.1 36 4 35.1 4 34V32H8V34C8 35.1 8.9 36 10 36H22C23.1 36 24 35.1 24 34V32H28V34C28 35.1 28.9 36 30 36C31.1 36 32 35.1 32 34V2C32 0.9 31.1 0 30 0C28.9 0 28 0.9 28 2ZM8 28H4V24H8V28ZM8 20H4V16H8V20ZM8 12H4V8H8V12ZM28 28H24V24H28V28ZM28 20H24V16H28V20ZM28 12H24V8H28V12Z" fill="#141414"/>
</svg>
